# xmcd CD database file
#
# Track frame offsets:
#	182
#	25615
#	53722
#	70222
#	115500
#	136580
#	156177
#	172180
#	196007
#	207987
#
# Disc length: 3112 seconds
#
# Revision: 3
# Processed by: cddbd v1.5.2PL0 Copyright (c) Steve Scherf et al.
# Submitted via: CDex 1.51
#
DISCID=7d0c260a
DTITLE=Various Artist - Strike A Deep Chord: Blues Guitars For The Homeless
DYEAR=1992
DGENRE=Blues
TTITLE0=Dr. John - Brother, Can You Spare A Dime?
TTITLE1=Ronnie Earl - Blues After Hours
TTITLE2=Tab Benoit - Bone Pickin'
TTITLE3=Clarence 'Gatemouth' Brown - The Drifter
TTITLE4=Dr. John - Broke, Raggedy And Hungry
TTITLE5=Johnny Copeland - Ghetto Child
TTITLE6=Joe Bonamassa - Self-Destructive Blues
TTITLE7=Tab Benoit - Nice And Warm
TTITLE8=Sue Foley - Guitar Rhumba
TTITLE9=Odetta - America The Beautiful
EXTD=YEAR: 1992
EXTT0=Odetta - vocals\nDr.John - vocals, piano\nJohn Campbell - National Steel guitar
EXTT1=Ronnie Earl - guitar\n
EXTT2=Tab Beniot - vocals, guitar\n
EXTT3=Clarence Gatemouth Brown - vocals, \nguitar, fiddle\nBill Foots Samuel - saxohpnoe
EXTT4=Dr.John - vocals, lead guitar\nBrian Stoltz - guitar
EXTT5=Johnny Clyde Copeland - vocals, lead \nguitar\nDr.John - piano\n
EXTT6=Jeff Gordon - vocals\nSmokin' Joe Bonamassa - lead guitar\n
EXTT7=Tab Beniot - vocals, guitar\n
EXTT8=Sue Foley - guitar\nDerek O'Brien - guitar\n
EXTT9=Odetta - vocals\nDr.John - vocals, piano\nJohn Campbell - National Steel guitar
PLAYORDER=
